<svg width="266" height="158" viewBox="0 0 266 158" fill="none" xmlns="http://www.w3.org/2000/svg">
<rect width="266" height="158" fill="white"/>
<path d="M129.98 158C129.117 158 128.254 157.758 127.473 157.355L119.583 152.76C118.391 152.115 118.966 151.873 119.377 151.752C120.939 151.228 121.268 151.107 122.953 150.14C123.117 150.059 123.363 150.1 123.528 150.18L129.61 153.727C129.815 153.848 130.144 153.848 130.349 153.727L154.102 140.265C154.307 140.144 154.471 139.902 154.471 139.62V112.735C154.471 112.452 154.348 112.211 154.102 112.09L130.349 98.6672C130.144 98.5463 129.856 98.5463 129.61 98.6672L105.857 112.09C105.611 112.211 105.488 112.493 105.488 112.735V139.62C105.488 139.862 105.652 140.103 105.857 140.224L112.35 143.892C115.884 145.626 118.062 143.57 118.062 141.555V114.992C118.062 114.629 118.35 114.307 118.761 114.307H121.761C122.131 114.307 122.459 114.589 122.459 114.992V141.555C122.459 146.19 119.912 148.81 115.432 148.81C114.076 148.81 112.967 148.81 109.967 147.359L103.721 143.852C102.2 142.965 101.214 141.353 101.214 139.62V112.735C101.214 111.001 102.159 109.349 103.721 108.502L127.473 95.0395C128.993 94.193 130.966 94.193 132.445 95.0395L156.197 108.502C157.718 109.389 158.704 111.001 158.704 112.735V139.62C158.704 141.353 157.759 143.006 156.197 143.852L132.445 157.315C131.747 157.758 130.884 158 129.98 158V158ZM149.17 131.478C149.17 126.439 145.718 125.109 138.404 124.142C131.007 123.174 130.267 122.691 130.267 120.998C130.267 119.587 130.884 117.733 136.349 117.733C141.239 117.733 143.047 118.781 143.787 122.005C143.869 122.328 144.116 122.529 144.445 122.529H147.527C147.732 122.529 147.896 122.449 148.02 122.328C148.143 122.167 148.225 122.005 148.184 121.804C147.691 116.241 143.951 113.662 136.349 113.662C129.569 113.662 125.541 116.483 125.541 121.159C125.541 126.278 129.569 127.648 136.061 128.293C143.828 129.059 144.445 130.147 144.445 131.639C144.445 134.259 142.308 135.347 137.294 135.347C131.007 135.347 129.61 133.815 129.158 130.752C129.117 130.43 128.829 130.188 128.459 130.188H125.377C125.007 130.188 124.678 130.47 124.678 130.873C124.678 134.783 126.856 139.459 137.253 139.459C144.855 139.459 149.17 136.556 149.17 131.478V131.478ZM171.566 111.283C171.566 113.742 169.512 115.758 167.005 115.758C164.498 115.758 162.444 113.742 162.444 111.283C162.444 108.744 164.58 106.809 167.005 106.809C169.471 106.769 171.566 108.744 171.566 111.283ZM170.827 111.283C170.827 109.187 169.101 107.535 166.964 107.535C164.868 107.535 163.142 109.187 163.142 111.283C163.142 113.379 164.868 115.072 166.964 115.072C169.101 115.032 170.827 113.339 170.827 111.283ZM168.978 113.783H167.909C167.868 113.541 167.704 112.251 167.704 112.211C167.621 111.928 167.539 111.767 167.169 111.767H166.265V113.783H165.279V108.744H167.046C167.662 108.744 168.854 108.744 168.854 110.074C168.854 111.001 168.238 111.203 167.868 111.324C168.567 111.364 168.608 111.807 168.731 112.452C168.772 112.855 168.854 113.541 168.978 113.783V113.783ZM167.827 110.235C167.827 109.55 167.334 109.55 167.087 109.55H166.265V110.961H167.046C167.704 110.961 167.827 110.518 167.827 110.235V110.235ZM56.4217 52.7971C56.4217 51.7088 55.8464 50.7414 54.9013 50.2174L29.7108 35.9888C29.2998 35.747 28.8067 35.6261 28.3136 35.5858H28.067C27.5739 35.5858 27.1219 35.747 26.6698 35.9888L1.52047 50.2174C0.575313 50.7414 0 51.7491 0 52.7971L0.0410937 91.0894C0.0410937 91.6134 0.32875 92.0971 0.780781 92.3792C1.23281 92.6614 1.80812 92.6614 2.30125 92.3792L17.2594 83.9549C18.2045 83.3906 18.7798 82.4232 18.7798 81.3752V63.4786C18.7798 62.4306 19.3552 61.423 20.3003 60.899L26.6698 57.3116C27.163 57.0294 27.6561 56.9085 28.1903 56.9085C28.7245 56.9085 29.2588 57.0294 29.7108 57.3116L36.0803 60.899C37.0255 61.423 37.6008 62.4306 37.6008 63.4786V81.3752C37.6008 82.4232 38.1761 83.4309 39.1212 83.9549L54.0794 92.3792C54.5314 92.6614 55.1478 92.6614 55.5998 92.3792C56.0519 92.1374 56.3395 91.6134 56.3395 91.0894L56.4217 52.7971ZM194.168 10.9981V82.1008C194.168 83.1488 193.593 84.1565 192.647 84.6805L167.457 98.9493C166.512 99.4733 165.361 99.4733 164.416 98.9493L139.226 84.6805C138.28 84.1565 137.705 83.1488 137.705 82.1008V53.563C137.705 52.515 138.28 51.5073 139.226 50.9833L164.416 36.7144C165.361 36.1904 166.512 36.1904 167.457 36.7144L173.744 40.2615C174.443 40.6645 175.347 40.1405 175.347 39.3747V1.48553C175.347 0.356915 176.58 -0.368622 177.607 0.195684L192.606 8.41844C193.552 8.90213 194.168 9.90982 194.168 10.9981V10.9981ZM175.265 62.9546C175.265 62.6725 175.1 62.4306 174.895 62.3097L166.265 57.3922C166.019 57.2713 165.731 57.2713 165.485 57.3922L156.855 62.3097C156.608 62.4306 156.485 62.6725 156.485 62.9546V72.7494C156.485 73.0315 156.649 73.2734 156.855 73.3943L165.485 78.2715C165.731 78.3925 166.019 78.3925 166.224 78.2715L174.854 73.3943C175.1 73.2734 175.224 73.0315 175.224 72.7494V62.9546H175.265ZM261.48 62.6725C262.425 62.1485 263 61.1408 263 60.0928V53.2002C263 52.1522 262.425 51.1445 261.48 50.6205L236.453 36.3516C235.508 35.8276 234.358 35.8276 233.412 36.3516L208.222 50.6205C207.277 51.1445 206.702 52.1522 206.702 53.2002V81.738C206.702 82.8263 207.277 83.7937 208.222 84.3177L233.248 98.3044C234.152 98.8284 235.303 98.8284 236.248 98.3044L251.37 90.0414C252.398 89.4771 252.398 88.026 251.37 87.4617L226.016 73.1928C225.522 72.9106 225.235 72.4269 225.235 71.9029V62.9546C225.235 62.4306 225.522 61.947 226.016 61.6648L233.906 57.1907C234.358 56.9085 234.974 56.9085 235.426 57.1907L243.316 61.6648C243.768 61.947 244.097 62.4306 244.097 62.9546V69.9682C244.097 71.0968 245.371 71.8223 246.398 71.258L261.48 62.6725V62.6725ZM229.714 64.0833C229.55 64.2042 229.426 64.3654 229.426 64.5669V70.0488C229.426 70.2503 229.55 70.4519 229.714 70.5325L234.563 73.2734C234.727 73.3943 234.974 73.3943 235.138 73.2734L239.987 70.5325C240.152 70.4116 240.275 70.2503 240.275 70.0488V64.5669C240.275 64.3654 240.152 64.1639 239.987 64.0833L235.138 61.3423C234.974 61.2214 234.727 61.2214 234.563 61.3423L229.714 64.0833ZM125.254 81.6171V53.2405C125.254 52.1925 124.596 51.1848 123.651 50.6608L98.5428 36.4725C97.6798 35.9888 96.4881 35.9082 95.5019 36.4725L70.3936 50.6608C69.4484 51.1848 68.7909 52.1522 68.7909 53.2405V81.6171C68.7909 82.7457 69.5717 83.7131 70.4347 84.1968L95.5841 98.385C96.5703 98.9493 97.7209 98.909 98.625 98.385L123.692 84.1968C124.432 83.7937 124.966 83.1085 125.172 82.3023C125.213 82.1008 125.254 81.8589 125.254 81.6171ZM94.7211 31.2729L94.3923 31.4744H94.8444L94.7211 31.2729V31.2729ZM126.035 83.7534L125.87 83.4712V83.834L126.035 83.7534Z" fill="black"/>
</svg>
